<svg xmlns="http://www.w3.org/2000/svg" viewBox="0 0 27 19">
  <defs>
    <style>
      .cls-1 {
        fill: #fff;
        fill-rule: evenodd;
      }

      .cls-2, .cls-3 {
        stroke: none;
      }

      .cls-3 {
        fill: #707070;
      }
    </style>
  </defs>
  <g id="common-email-envelope-mail-outline-stroke" class="cls-1" transform="translate(-216 -339)">
    <path class="cls-2" d="M 242.5000152587891 357.5000305175781 L 216.5000152587891 357.5000305175781 L 216.5000152587891 339.5000305175781 L 216.727294921875 339.5000305175781 L 216.727294921875 340.1673889160156 L 216.727294921875 340.1875915527344 L 216.727294921875 340.5361633300781 L 216.727294921875 341.659912109375 L 216.727294921875 355.976806640625 L 216.727294921875 357.1567687988281 L 217.5750579833984 356.3360595703125 L 225.2337188720703 348.9218444824219 L 225.6182861328125 348.5495300292969 L 225.2206878662109 348.1911926269531 L 217.5620422363281 341.2885131835938 L 216.8953247070312 340.6875915527344 L 217.0687866210938 340.6875915527344 L 229.1779174804688 350.88623046875 L 229.5000152587891 351.1575317382812 L 229.8221130371094 350.88623046875 L 241.9312438964844 340.6875915527344 L 242.1046600341797 340.6875915527344 L 241.4379577636719 341.2885131835938 L 233.7818298339844 348.1893310546875 L 233.3842620849609 348.5476684570312 L 233.7688293457031 348.9199829101562 L 241.4249572753906 356.3317565917969 L 242.2727203369141 357.1524963378906 L 242.2727203369141 355.9725341796875 L 242.2727203369141 341.659912109375 L 242.2727203369141 340.6875915527344 L 242.2727203369141 340.1875915527344 L 242.2727203369141 340.1673889160156 L 242.2727203369141 339.5000305175781 L 242.5000152587891 339.5000305175781 L 242.5000152587891 357.5000305175781 Z M 225.8259582519531 348.6365051269531 L 225.5213928222656 348.9313659667969 L 217.7514495849609 356.4533386230469 L 216.8638763427734 357.3125915527344 L 218.0992126464844 357.3125915527344 L 240.9052886962891 357.3125915527344 L 242.1406402587891 357.3125915527344 L 241.2530517578125 356.4533386230469 L 233.4811401367188 348.9295349121094 L 233.1765594482422 348.6346435546875 L 232.8358459472656 348.8869323730469 L 229.5000152587891 351.3567810058594 L 226.1666870117188 348.8887939453125 L 225.8259582519531 348.6365051269531 Z M 241.5662384033203 339.6875915527344 L 217.4337768554688 339.6875915527344 L 217.2110900878906 339.5000305175781 L 241.7889404296875 339.5000305175781 L 241.5662384033203 339.6875915527344 Z"/>
    <path class="cls-3" d="M 243.0000152587891 358.0000305175781 L 216.0000152587891 358.0000305175781 L 216.0000152587891 339.0000305175781 L 243.0000152587891 339.0000305175781 L 243.0000152587891 358.0000305175781 Z M 240.9052886962891 356.8125915527344 L 233.1333770751953 349.2887573242188 L 229.5000152587891 351.9789123535156 L 225.8691558837891 349.2906188964844 L 218.0992126464844 356.8125915527344 L 240.9052886962891 356.8125915527344 Z M 217.227294921875 341.659912109375 L 217.227294921875 355.976806640625 L 224.8859405517578 348.5625915527344 L 217.227294921875 341.659912109375 Z M 241.7727203369141 341.659912109375 L 234.1165924072266 348.5607299804688 L 241.7727203369141 355.9725341796875 L 241.7727203369141 341.659912109375 Z M 217.2512817382812 340.1875915527344 L 229.5000152587891 350.5038146972656 L 241.7487487792969 340.1875915527344 L 241.7727203369141 340.1875915527344 L 241.7727203369141 340.1673889160156 L 241.7487487792969 340.1875915527344 L 217.2512817382812 340.1875915527344 L 217.227294921875 340.1673889160156 L 217.227294921875 340.1875915527344 L 217.2512817382812 340.1875915527344 Z"/>
  </g>
</svg>
