<svg xmlns="http://www.w3.org/2000/svg" viewBox="0 0 20 27">
  <defs>
    <style>
      .cls-1, .cls-2 {
        fill-rule: evenodd;
      }

      .cls-2 {
        fill: #fff;
        stroke: #000;
      }
    </style>
  </defs>
  <g id="Group_6" data-name="Group 6" transform="translate(-720 -310)">
    <path id="Path_4" data-name="Path 4" class="cls-1" d="M-77.622-163.687h10.543c.007-.084.017-.15.017-.216,0-1.131.011-2.263-.007-3.394a5.926,5.926,0,0,0-.134-1.187,5.2,5.2,0,0,0-5.917-4.125,5.209,5.209,0,0,0-4.5,5.164c-.02,1.111-.006,2.224-.007,3.335,0,.134,0,.269,0,.422m5.246,15.605h8.115c.573,0,.713-.141.713-.72q0-6.468,0-12.936c0-.591-.13-.728-.7-.729-.85,0-1.7,0-2.55,0H-80.421c-.6,0-.739.145-.739.762q0,6.439,0,12.878c0,.6.147.746.727.746h8.057m-6.434-15.586c0-1.206,0-2.366,0-3.526a6.692,6.692,0,0,1,5.377-6.577,6.5,6.5,0,0,1,6.945,3.777,6.66,6.66,0,0,1,.606,2.859c-.006,1.034,0,2.068,0,3.1v.341c.106.009.187.023.269.023.459,0,.919.025,1.376,0a1.949,1.949,0,0,1,1.893,1.93c-.02,4.312-.008,8.624-.009,12.936a1.893,1.893,0,0,1-1.884,1.937q-8.114,0-16.229,0a1.879,1.879,0,0,1-1.873-1.887q-.011-6.512,0-13.024a1.859,1.859,0,0,1,1.864-1.886c.543,0,1.086,0,1.666,0" transform="translate(802.346 483.868)"/>
    <path id="Path_5" data-name="Path 5" class="cls-2" d="M-32.579,0a1.63,1.63,0,0,1,1.392,1.057,1.776,1.776,0,0,1-.267,1.915.815.815,0,0,0-.158.436c-.02.457,0,.916-.009,1.374A1.178,1.178,0,0,1-32.789,6a1.191,1.191,0,0,1-1.185-1.234c0-.448.013-.9-.009-1.344a.9.9,0,0,0-.166-.46,1.817,1.817,0,0,1-.243-1.92A1.814,1.814,0,0,1-32.579,0" transform="translate(762.791 327.598)"/>
  </g>
</svg>
